# xmcd
#
# Track frame offsets: 
#        150
#        13357
#        27359
#        44061
#        57008
#        76097
#        90087
#        107926
#        127081
#        139143
#        152190
#        175057
#        191699
#        206813
#        223010
#        236502
#        255479
#        270693
#        289588
#        307967
#
# Disc length: 4328 seconds
#
# Revision: 2
# Processed by: cddbd v1.5.2PL0 Copyright (c) Steve Scherf et al.
# Submitted via: ExactAudioCopy v0.99pb3
#
DISCID=1f10e614
DTITLE=Mungo Jerry - Mungo Jerry_Electronically Tested
DYEAR=1995
DGENRE=Rock
TTITLE0=Baby Let's Play House
TTITLE1=Jonny B.Badde
TTITLE2=San Francisco Bay Blues
TTITLE3=San Eyed Joe
TTITLE4=Maggie
TTITLE5=Peace In the Country
TTITLE6=See Me
TTITLE7=Movin' On
TTITLE8=My Friend
TTITLE9=Mother*!*!*! Boogie
TTITLE10=Tramp
TTITLE11=Daddie's Brew
TTITLE12=She Rowed
TTITLE13=In the Summertime
TTITLE14=Somebody Stole My Wife
TTITLE15=Baby Jump
TTITLE16=Follow Me Down
TTITLE17=Memoirs Of a Stockbroker
TTITLE18=You Better Leave That Whisky Alone
TTITLE19=Coming Back To You When the Time Comes
EXTD=
EXTT0=
EXTT1=
EXTT2=
EXTT3=
EXTT4=
EXTT5=
EXTT6=
EXTT7=
EXTT8=
EXTT9=
EXTT10=
EXTT11=
EXTT12=
EXTT13=
EXTT14=
EXTT15=
EXTT16=
EXTT17=
EXTT18=
EXTT19=
PLAYORDER=
